<svg width="75" height="36" viewBox="0 0 75 36" fill="none" xmlns="http://www.w3.org/2000/svg">
<path d="M40.7684 16.2217H36.6389L24.5205 26.0545V29.893H40.7684V16.2217ZM36.653 26.2193H30.3431L36.653 21.1329V26.2193Z" fill="#424143"/>
<path d="M74.9892 32.3961H4.09789V15.2438L16.7912 4.97973L30.6028 16.0255L33.4983 13.6733L18.6071 1.57241C18.1257 1.1837 17.5256 0.97168 16.9069 0.97168C16.2882 0.97168 15.6881 1.1837 15.2067 1.57241L1.81232 12.4008C1.35045 12.7737 0.977877 13.2453 0.721907 13.7809C0.465937 14.3165 0.333057 14.9025 0.333008 15.4962C0.333008 22.3015 0.333008 29.1068 0.333008 35.9121H74.9997V32.4066L74.9892 32.3961Z" fill="#424143"/>
<path d="M50.6487 26.0866C48.6156 26.0866 46.968 24.6844 46.968 22.9772C46.968 21.2701 48.6156 19.8679 50.6487 19.8679C51.2657 19.8534 51.877 19.9872 52.4315 20.2581C52.986 20.5289 53.4674 20.9288 53.8352 21.4243L57.4178 18.5218C56.5876 17.6311 55.5801 16.9243 54.4601 16.4467C53.3402 15.9691 52.1326 15.7314 50.9152 15.7489C46.358 15.7489 42.6562 18.9845 42.6562 22.9737C42.6562 26.963 46.3545 30.1985 50.9152 30.1985C52.118 30.216 53.3114 29.9843 54.4203 29.5179C55.5291 29.0516 56.5294 28.3607 57.3582 27.4888C57.3582 27.4888 54.4627 24.9543 53.9018 24.425C53.5428 24.9529 53.0566 25.3819 52.488 25.6723C51.9195 25.9627 51.2869 26.1052 50.6487 26.0866Z" fill="#424143"/>
<path d="M63.372 29.893V24.8907L69.0263 29.893H74.8559L66.6076 22.7734L74.6 16.2217H69.2542L63.4351 20.7017L63.4141 20.7192V16.2217H59.2285V29.893H63.372Z" fill="#424143"/>
<path d="M19.2124 25.9913V11.2087H16.7937L11.7002 15.2471V16.5125H14.5747V25.9913H11.7002V29.8929H21.8871V25.9913H19.2124Z" fill="#424143"/>
</svg>
