<svg width="42" height="38" viewBox="0 0 42 38" fill="none" xmlns="http://www.w3.org/2000/svg">
<path fill-rule="evenodd" clip-rule="evenodd" d="M8.76276 12.4182C9.13203 12.5834 9.84345 12.9021 10.5458 13.2176L8.76276 12.4182ZM24.4486 1.10493C26.6359 1.10493 28.7294 1.51637 30.6606 2.2658L32.8041 0.993633C32.933 0.917324 33.1859 0.73296 32.2693 1.40345C31.9729 1.62018 31.5399 1.96172 31.0098 2.40552C37.4526 5.06948 42 11.5383 42 19.0967C42 29.0333 34.1418 37.0885 24.4486 37.0885C14.7551 37.0885 6.89719 29.0333 6.89719 19.0967C6.89719 16.0694 7.62745 13.2171 8.91617 10.7139C6.36962 7.15178 3.15957 4.26506 0 5.19862C4.54127 1.09033 8.70113 -0.520744 11.9174 6.50106C15.1027 3.17147 19.5398 1.10493 24.4486 1.10493ZM12.5408 7.89827C13.4683 9.96064 14.2265 11.5117 14.8785 12.642L17.2926 11.6098L19.2594 6.87257L12.5503 6.71624L12.5408 7.89827ZM15.0898 12.9996C15.4637 13.6166 15.8025 14.0888 16.1196 14.435L17.0664 12.1545L15.0898 12.9996ZM16.4331 14.7428C17.0965 15.3182 17.6774 15.325 18.3132 14.9597L22.4199 9.86556L17.603 11.9251L16.4331 14.7428ZM22.9709 9.18202L23.4672 8.56637L19.6713 6.9434L17.8291 11.3804L22.9709 9.18202ZM23.7358 8.23317L26.6067 4.67187L27.1435 4.35327L24.6374 1.72027L19.918 6.60093L23.7358 8.23317ZM27.5054 4.13855L30.017 2.64781C28.4949 2.10653 26.8746 1.78091 25.1906 1.70668L27.5054 4.13855ZM30.5085 2.8314C29.8443 3.40341 29.0672 4.10194 28.2299 4.89979L29.512 6.24688L30.8418 2.9661C30.7313 2.92007 30.6202 2.87519 30.5085 2.8314ZM27.9338 5.18364C26.947 6.13558 25.8874 7.21612 24.837 8.38409L29.2032 6.51728L27.9338 5.18364ZM24.2016 9.10378C19.5914 14.4123 15.4884 21.2456 18.9921 25.9227C19.0185 25.9579 18.7229 26.1834 18.2635 26.5011L24.462 29.1281L31.6588 26.0781L34.5494 19.0912L31.9494 12.8292L31.7414 12.7106L31.6809 13.9699L31.0913 12.7106L30.925 14.3539L30.7286 12.6645L28.9601 14.3999L30.4262 12.4034L28.9601 12.3422L30.2778 11.8865C30.2834 11.8338 30.2952 11.7825 30.3125 11.7335L29.7972 11.2727L24.4629 8.99202L24.2016 9.10378ZM17.8576 26.7772L17.8183 26.8036L19.6277 31.177L23.9333 29.3522L17.8576 26.7772ZM17.471 27.0344C16.2544 27.8371 14.6678 28.8276 14.1346 29.1216C13.5245 28.2252 13.2985 26.5565 13.3487 24.8662L12.4907 24.5026L12.4576 31.352L19.2133 31.2457L17.471 27.0344ZM13.3679 24.4263C13.4394 23.1863 13.655 21.9698 13.972 21.0745C13.9947 21.0103 13.9885 20.8864 13.9552 20.7108L12.5556 24.082L13.3679 24.4263ZM13.7838 20.0607C13.4345 18.9426 12.6466 17.0635 11.5512 15.0036L7.51021 19.0569L12.2189 23.83L13.7838 20.0607ZM11.3482 14.6262C11.0952 14.1616 10.8271 13.69 10.5458 13.2176L10.5429 13.2126C10.1497 12.5523 9.73051 11.8909 9.28891 11.2461C9.10137 11.6261 8.92702 12.014 8.76645 12.4093L8.76276 12.4182C7.99822 14.3036 7.54758 16.3564 7.47781 18.5083L11.3482 14.6262ZM1.10812 4.76255C2.27282 3.82837 3.84281 2.45371 5.337 2.25854C3.44694 3.96485 2.61195 3.94924 5.25442 5.61562C5.25442 5.61562 5.31914 6.10538 5.06937 5.88889C4.02951 4.98831 2.28646 4.26738 1.10812 4.76255ZM37.2356 23.9957L40.2395 25.5091C40.9479 23.6779 41.3621 21.6945 41.4219 19.6197L37.2356 23.9957ZM40.0857 25.8931L37.0575 24.3676L37.1454 30.6547C38.3615 29.2518 39.3596 27.646 40.0857 25.8931ZM29.9627 31.7225L31.3021 35.0271C33.197 34.1694 34.91 32.9668 36.3655 31.4967L29.9627 31.7225ZM30.9283 35.1908L29.5747 31.8513L25.1888 36.4869C27.2141 36.3978 29.1474 35.945 30.9283 35.1908ZM17.7152 35.0811L19.1018 31.6604L12.7973 31.7596C14.2254 33.1407 15.8871 34.2708 17.7152 35.0811ZM19.5113 31.7362L18.0902 35.242C19.9494 36.0122 21.9719 36.4547 24.09 36.4997L19.5113 31.7362ZM30.8205 11.2623C30.8591 11.2501 30.8989 11.2405 30.9399 11.2336L31.0912 10.7621L29.4677 6.85218L24.9868 8.76803L30.0864 10.9484L29.6932 10.284L30.7273 11.2225L30.8205 11.2623ZM31.2835 10.1625L31.3332 10.0076L31.3377 10.2931L31.552 10.8092C31.9549 10.5018 32.8145 9.83104 32.8145 9.83104L31.7261 11.2055L32.754 11.1749L31.9227 11.5435L33.2828 12.0348L32.7788 12.0996L36.6439 13.7521L36.5758 6.94486L29.889 6.80398L31.2835 10.1625ZM32.4781 13.0398L32.603 13.2021L32.5277 13.1592L34.7696 18.5588L36.5836 14.1744L32.1648 12.2851L32.4781 13.0398ZM37.0505 13.7328L40.0527 12.2202C39.298 10.4226 38.2565 8.78132 36.9868 7.35731L37.0505 13.7328ZM40.2083 12.6034L37.1929 14.1226L41.4179 18.4693C41.3464 16.4019 40.9235 14.4263 40.2083 12.6034ZM31.2165 3.12768L29.8938 6.39108L36.1925 6.52369C34.7527 5.11034 33.0706 3.95434 31.2165 3.12768ZM18.228 2.89543L19.617 6.32203L24.0925 1.69371C22.0257 1.73734 20.0499 2.15967 18.228 2.89543ZM19.2323 6.45889L17.8516 3.05268C16.0243 3.84328 14.3601 4.95216 12.9252 6.31183L19.2323 6.45889ZM12.0526 30.9928L12.0832 24.6683L8.81528 25.9046C9.60016 27.7956 10.7022 29.5149 12.0526 30.9928ZM8.66187 25.522L12.0444 24.2373L7.47487 19.6054C7.53326 21.6902 7.9488 23.6833 8.66187 25.522ZM19.8732 31.521L24.6351 36.4753L29.2446 31.6032L24.462 29.5763L19.8732 31.521ZM29.937 31.3101L36.7443 31.0699L36.6513 24.4102L31.971 26.3938L29.937 31.3101ZM36.9184 23.7342L41.4049 19.0443L36.9203 14.4306L34.9915 19.0929L36.9184 23.7342ZM24.9906 29.3522L29.5115 31.2682L31.434 26.6214L24.9906 29.3522ZM34.7712 19.6253L32.1957 25.8504L36.5837 23.9908L34.7712 19.6253Z" fill="#09304A"/>
</svg>
