<svg width="40" height="40" viewBox="0 0 40 40" fill="none" xmlns="http://www.w3.org/2000/svg">
<circle cx="2" cy="16" r="2" fill="#D9D9D9"/>
<circle cx="3" cy="26" r="2" fill="#D9D9D9"/>
<circle cx="11" cy="8" r="2" fill="#D9D9D9"/>
<circle cx="31" cy="8" r="2" fill="#D9D9D9"/>
<circle cx="36" cy="16" r="2" fill="#D9D9D9"/>
<circle cx="36.5" cy="26.5" r="1.5" fill="#D9D9D9"/>
<circle cx="34" cy="31" r="1" fill="#D9D9D9"/>
<circle cx="23" cy="26" r="1" fill="#D9D9D9"/>
<circle cx="16" cy="15" r="1" fill="#D9D9D9"/>
<circle cx="26" cy="4" r="1" fill="#D9D9D9"/>
<circle cx="36" cy="11" r="1" fill="#D9D9D9"/>
<circle cx="14" cy="36" r="1" fill="#D9D9D9"/>
<circle cx="6" cy="31" r="1" fill="#D9D9D9"/>
<circle cx="28" cy="33" r="2" fill="#D9D9D9"/>
<circle cx="10" cy="15" r="3" fill="#D9D9D9"/>
<circle cx="10" cy="26" r="3" fill="#D9D9D9"/>
<circle cx="29" cy="15" r="3" fill="#D9D9D9"/>
<circle cx="20" cy="8" r="4" fill="#F8F8F8"/>
<circle cx="21" cy="16" r="2" fill="#F8F8F8"/>
<circle cx="17.5" cy="23.5" r="1.5" fill="#F8F8F8"/>
<circle cx="10" cy="33" r="2" fill="#F8F8F8"/>
<circle cx="30" cy="26" r="3" fill="#F8F8F8"/>
<circle cx="25" cy="37" r="1" fill="#F8F8F8"/>
<circle cx="6" cy="23" r="1" fill="#F8F8F8"/>
<circle cx="39" cy="22" r="1" fill="#F8F8F8"/>
<circle cx="6" cy="10" r="1" fill="#F8F8F8"/>
<circle cx="14" cy="4" r="1" fill="#F8F8F8"/>
<circle cx="20" cy="32" r="4" fill="#D9D9D9"/>
</svg>
