<svg width="100" height="47" viewBox="0 0 100 47" fill="none" xmlns="http://www.w3.org/2000/svg">
<path d="M0 19.3441L11.098 10L16.7651 14.0215L22.4321 10L33.5301 19.2258L44.6281 10L50.2952 14.0215L56.0803 10L66.706 19.3441L77.804 10L83.4711 14.0215L89.2562 10L100 19.3441V27.1505L89.6104 18.5161V29.6344L97.6387 46.6667H90.3188L83.4711 32.4731L76.6234 46.6667H69.3034L77.3318 29.6344V18.5161L66.706 27.2688L56.1983 18.5161V29.5161L64.2267 46.6667H56.7887L49.941 32.4731L43.2113 46.6667H35.8914L43.9197 29.5161V18.5161L33.5301 27.2688L22.7863 18.5161V29.5161L30.6966 46.6667H23.1405L16.7651 32.4731L10.3896 46.6667H2.36128L10.3896 29.5161V18.5161L0 27.2688V19.3441Z" fill="#886BFF"/>
<ellipse cx="16.6615" cy="5" rx="5.33333" ry="5" fill="#886BFF"/>
<circle cx="50.333" cy="5" r="5" fill="#886BFF"/>
<ellipse cx="83.9945" cy="5" rx="5.33333" ry="5" fill="#886BFF"/>
</svg>
